<svg width="59" height="30" viewBox="0 0 59 30" fill="none" xmlns="http://www.w3.org/2000/svg">
<mask id="mask0_45_1873" style="mask-type:alpha" maskUnits="userSpaceOnUse" x="0" y="0" width="59" height="30">
<path d="M0 0H59V30H0V0Z" fill="#D9D9D9"/>
</mask>
<g mask="url(#mask0_45_1873)">
<path d="M14.6052 19.7867C16.0837 19.7867 17.4351 19.5122 18.6595 18.9633C19.8838 18.4144 20.7501 17.6922 21.2583 16.7967L22.09 15.1067C22.8754 13.6333 22.6559 12.2828 21.4316 11.055C20.2072 9.82722 18.4862 9.21333 16.2685 9.21333H6.35814L7.6749 15.9733C7.90591 17.0711 8.6798 17.9811 9.99656 18.7033C11.3133 19.4256 12.8495 19.7867 14.6052 19.7867ZM38.8613 19.7867C40.617 19.7867 42.1532 19.4256 43.47 18.7033C44.7868 17.9811 45.5607 17.0711 45.7917 15.9733L47.1084 9.21333H37.2674C35.0497 9.21333 33.3171 9.82722 32.0696 11.055C30.8222 12.2828 30.5912 13.6333 31.3766 15.1067L32.2082 16.7967C32.7165 17.6922 33.5828 18.4144 34.8071 18.9633C36.0315 19.5122 37.3829 19.7867 38.8613 19.7867ZM14.6052 21C12.3875 21 10.4355 20.5378 8.7491 19.6133C7.06273 18.6889 6.08093 17.5189 5.80372 16.1033L4.41765 9.21333H2.19995V8H16.2685C17.747 8 19.133 8.26 20.4267 8.78C21.7204 9.3 22.783 10.0222 23.6146 10.9467H29.9212C30.7529 10.0222 31.8155 9.3 33.1092 8.78C34.4028 8.26 35.7889 8 37.2674 8H51.2666V9.21333H49.0489L47.6628 16.1033C47.3856 17.5189 46.4038 18.6889 44.7175 19.6133C43.0311 20.5378 41.079 21 38.8613 21C36.9209 21 35.1883 20.6533 33.6636 19.96C32.1389 19.2667 31.0532 18.3567 30.4064 17.23L29.5747 15.54C29.4361 15.2511 29.3206 14.9478 29.2282 14.63C29.1358 14.3122 29.0434 13.8356 28.951 13.2H24.5156C24.4232 13.7778 24.3308 14.2328 24.2384 14.565C24.146 14.8972 24.0305 15.2078 23.8919 15.4967L23.0602 17.1867C22.4596 18.3133 21.3854 19.2306 19.8376 19.9383C18.2898 20.6461 16.5457 21 14.6052 21Z" fill="#1C1B1F"/>
</g>
</svg>
