<svg width="118" height="95" viewBox="0 0 118 95" fill="none" xmlns="http://www.w3.org/2000/svg">
<mask id="mask0_47_2412" style="mask-type:alpha" maskUnits="userSpaceOnUse" x="0" y="0" width="118" height="95">
<rect width="118" height="95" fill="#D9D9D9"/>
</mask>
<g mask="url(#mask0_47_2412)">
<path d="M29.5001 87.0835C26.7959 87.0835 24.481 86.3083 22.5553 84.758C20.6296 83.2076 19.6667 81.3439 19.6667 79.1668V39.5835C19.6667 37.4064 20.6296 35.5427 22.5553 33.9923C24.481 32.442 26.7959 31.6668 29.5001 31.6668H34.4167V23.7502C34.4167 18.2745 36.8136 13.6069 41.6074 9.74756C46.4011 5.88818 52.1987 3.9585 59.0001 3.9585C65.8015 3.9585 71.599 5.88818 76.3928 9.74756C81.1865 13.6069 83.5834 18.2745 83.5834 23.7502V31.6668H88.5001C91.2042 31.6668 93.5192 32.442 95.4449 33.9923C97.3706 35.5427 98.3334 37.4064 98.3334 39.5835V79.1668C98.3334 81.3439 97.3706 83.2076 95.4449 84.758C93.5192 86.3083 91.2042 87.0835 88.5001 87.0835H29.5001ZM29.5001 79.1668H88.5001V39.5835H29.5001V79.1668ZM59.0001 67.2918C61.7042 67.2918 64.0192 66.5167 65.9449 64.9663C67.8706 63.416 68.8334 61.5522 68.8334 59.3752C68.8334 57.1981 67.8706 55.3344 65.9449 53.784C64.0192 52.2337 61.7042 51.4585 59.0001 51.4585C56.2959 51.4585 53.981 52.2337 52.0553 53.784C50.1296 55.3344 49.1667 57.1981 49.1667 59.3752C49.1667 61.5522 50.1296 63.416 52.0553 64.9663C53.981 66.5167 56.2959 67.2918 59.0001 67.2918ZM44.2501 31.6668H73.7501V23.7502C73.7501 20.4516 72.3161 17.6477 69.448 15.3387C66.5799 13.0297 63.0973 11.8752 59.0001 11.8752C54.9029 11.8752 51.4202 13.0297 48.5522 15.3387C45.6841 17.6477 44.2501 20.4516 44.2501 23.7502V31.6668Z" fill="#043A6B"/>
</g>
</svg>
